<svg width="382" height="108" viewBox="0 0 382 108" fill="none" xmlns="http://www.w3.org/2000/svg">
<path d="M27.6445 37.699C31.9201 40.1675 35.8926 43.088 39.502 46.3962C38.78 46.3106 38.059 46.2652 37.3389 46.2595C34.0257 46.2335 31.0229 47.0391 28.3301 48.6746C25.6377 50.2613 23.4758 52.4609 21.8457 55.2742C20.216 58.0387 19.387 61.1753 19.3594 64.6833C19.3322 68.1427 20.1117 71.292 21.6973 74.1306C23.2829 76.9693 25.4584 79.2285 28.2227 80.907C30.9381 82.5849 33.9525 83.4366 37.2656 83.4626C40.5301 83.4883 43.435 82.7559 45.9805 81.2654C48.526 79.7749 50.5392 77.7925 52.0205 75.3191C53.4533 72.7967 54.1822 70.0254 54.2061 67.0046C54.2093 66.5857 54.1999 66.1841 54.1816 65.8005C58.9148 75.201 61.3945 85.5946 61.3945 96.155H23.0684V85.5798H0L27.6445 37.699ZM37.627 56.0564C39.3323 56.0698 40.889 56.4717 42.2959 57.2625C43.6543 58.004 44.7181 59.0357 45.4873 60.3572C46.2565 61.6789 46.6345 63.1928 46.6211 64.8982C46.608 66.5548 46.2063 68.0625 45.416 69.4207C44.6257 70.7787 43.5451 71.8423 42.1748 72.6111C40.8048 73.3312 39.2423 73.6844 37.4883 73.6707C35.6858 73.6564 34.1054 73.2783 32.7471 72.5369C31.389 71.7466 30.3249 70.6905 29.5557 69.3689C28.7381 67.9982 28.3362 66.4599 28.3496 64.7546C28.363 63.0493 28.7893 61.5422 29.6279 60.2332C30.4178 58.9238 31.4972 57.9084 32.8672 57.1882C34.2375 56.4194 35.8243 56.0423 37.627 56.0564Z" fill="#E4EEF0"/>
<path d="M112.397 86V62.3278C112.397 58.0237 111.163 54.5518 108.695 51.912C106.228 49.2722 102.928 47.9523 98.7962 47.9523C95.9842 47.9523 93.4879 48.5835 91.3072 49.8461C89.1838 51.0512 87.4909 52.7154 86.2284 54.8387C85.0233 56.9621 84.4207 59.4297 84.4207 62.2417L82.613 61.2087C82.613 58.2246 83.3303 55.5561 84.765 53.2032C86.2571 50.8503 88.2369 48.9852 90.7046 47.608C93.2296 46.2307 96.0703 45.542 99.2266 45.542C102.383 45.542 105.137 46.2594 107.49 47.694C109.901 49.1287 111.766 51.1086 113.086 53.6336C114.406 56.1587 115.065 59.0567 115.065 62.3278V86H112.397ZM81.7522 86V46.4028H84.4207V86H81.7522ZM145.806 86.8608C141.903 86.8608 138.403 85.9713 135.304 84.1923C132.262 82.3559 129.852 79.8883 128.073 76.7894C126.294 73.6904 125.405 70.1898 125.405 66.2875C125.405 62.3852 126.294 58.8845 128.073 55.7856C129.852 52.6293 132.262 50.133 135.304 48.2966C138.345 46.4602 141.789 45.542 145.634 45.542C148.675 45.542 151.401 46.1159 153.811 47.2636C156.279 48.354 158.316 49.9321 159.923 51.9981C161.587 54.064 162.735 56.5317 163.366 59.401V72.9157C162.678 75.7851 161.501 78.2814 159.837 80.4047C158.23 82.4707 156.222 84.0775 153.811 85.2253C151.458 86.3156 148.79 86.8608 145.806 86.8608ZM146.15 84.3645C151.085 84.3645 155.016 82.7289 157.943 79.4579C160.87 76.1294 162.333 71.7393 162.333 66.2875C162.333 62.6147 161.645 59.4297 160.267 56.7325C158.947 53.9779 157.054 51.8546 154.586 50.3625C152.118 48.8131 149.249 48.0384 145.978 48.0384C142.535 48.0384 139.464 48.8418 136.767 50.4486C134.127 51.9981 132.033 54.1501 130.483 56.9047C128.934 59.6019 128.159 62.7008 128.159 66.2014C128.159 69.702 128.934 72.8296 130.483 75.5842C132.033 78.2814 134.156 80.4334 136.853 82.0403C139.608 83.5897 142.707 84.3645 146.15 84.3645ZM162.247 86V75.4121L163.022 65.5988L162.247 56.0439V46.4028H164.916V86H162.247ZM209.322 86V62.3278C209.322 58.0237 208.088 54.5518 205.62 51.912C203.153 49.2722 199.853 47.9523 195.721 47.9523C192.909 47.9523 190.413 48.5835 188.232 49.8461C186.109 51.0512 184.416 52.7154 183.153 54.8387C181.948 56.9621 181.346 59.4297 181.346 62.2417L179.538 61.2087C179.538 58.2246 180.255 55.5561 181.69 53.2032C183.182 50.8503 185.162 48.9852 187.63 47.608C190.155 46.2307 192.995 45.542 196.152 45.542C199.308 45.542 202.062 46.2594 204.415 47.694C206.826 49.1287 208.691 51.1086 210.011 53.6336C211.33 56.1587 211.99 59.0567 211.99 62.3278V86H209.322ZM178.677 86V46.4028H181.346V86H178.677ZM242.731 86.8608C238.886 86.8608 235.414 85.9426 232.315 84.1062C229.273 82.2698 226.834 79.7735 224.998 76.6172C223.219 73.4609 222.33 69.9316 222.33 66.0293C222.33 62.1843 223.219 58.7124 224.998 55.6135C226.834 52.5146 229.273 50.0756 232.315 48.2966C235.414 46.4602 238.886 45.542 242.731 45.542C246.518 45.542 249.933 46.4602 252.974 48.2966C256.073 50.0756 258.512 52.5146 260.291 55.6135C262.128 58.7124 263.046 62.1843 263.046 66.0293C263.046 69.989 262.128 73.547 260.291 76.7033C258.512 79.8022 256.073 82.2698 252.974 84.1062C249.933 85.9426 246.518 86.8608 242.731 86.8608ZM242.731 84.3645C246.059 84.3645 249.043 83.561 251.683 81.9542C254.323 80.3474 256.418 78.1666 257.967 75.4121C259.516 72.6001 260.291 69.4438 260.291 65.9432C260.291 62.5573 259.516 59.5158 257.967 56.8186C256.418 54.1214 254.323 51.9981 251.683 50.4486C249.043 48.8418 246.059 48.0384 242.731 48.0384C239.402 48.0384 236.389 48.8418 233.692 50.4486C231.052 51.9981 228.958 54.1214 227.408 56.8186C225.859 59.5158 225.084 62.586 225.084 66.0293C225.084 69.5299 225.859 72.6575 227.408 75.4121C228.958 78.1666 231.052 80.3474 233.692 81.9542C236.389 83.561 239.402 84.3645 242.731 84.3645ZM293.97 86.8608C290.986 86.8608 288.231 86.2869 285.706 85.1392C283.238 83.9914 281.115 82.3846 279.336 80.3187C277.614 78.1953 276.409 75.7277 275.721 72.9157V59.401C276.409 56.4743 277.643 53.9779 279.422 51.912C281.201 49.8461 283.353 48.2679 285.878 47.1776C288.403 46.0872 291.1 45.542 293.97 45.542C297.757 45.542 301.114 46.4602 304.041 48.2966C307.025 50.0756 309.378 52.5433 311.1 55.6996C312.821 58.7985 313.682 62.3278 313.682 66.2875C313.682 70.1898 312.821 73.6904 311.1 76.7894C309.435 79.8883 307.111 82.3559 304.127 84.1923C301.143 85.9713 297.757 86.8608 293.97 86.8608ZM274.257 102.872V46.4028H276.926V56.0439L276.065 65.5988L276.926 75.4121V102.872H274.257ZM293.453 84.3645C296.896 84.3645 299.909 83.5897 302.492 82.0403C305.131 80.4908 307.197 78.3388 308.689 75.5842C310.182 72.8296 310.928 69.702 310.928 66.2014C310.928 62.6434 310.182 59.5158 308.689 56.8186C307.197 54.064 305.16 51.912 302.578 50.3625C299.995 48.8131 297.04 48.0384 293.711 48.0384C290.383 48.0384 287.456 48.8131 284.931 50.3625C282.406 51.912 280.426 54.064 278.992 56.8186C277.557 59.5158 276.84 62.6721 276.84 66.2875C276.84 69.7881 277.528 72.9157 278.905 75.6703C280.34 78.3675 282.291 80.4908 284.759 82.0403C287.284 83.5897 290.182 84.3645 293.453 84.3645ZM324.947 86V46.4028H327.616V86H324.947ZM326.238 36.5035C325.492 36.5035 324.861 36.2166 324.345 35.6427C323.828 35.0689 323.57 34.4089 323.57 33.6629C323.57 32.8594 323.828 32.1995 324.345 31.683C324.861 31.1665 325.492 30.9083 326.238 30.9083C327.042 30.9083 327.702 31.1665 328.218 31.683C328.792 32.1995 329.079 32.8594 329.079 33.6629C329.079 34.4089 328.792 35.0689 328.218 35.6427C327.702 36.2166 327.042 36.5035 326.238 36.5035ZM359.671 86.8608C355.711 86.8608 352.153 85.9713 348.997 84.1923C345.898 82.3559 343.43 79.8883 341.594 76.7894C339.815 73.6331 338.925 70.075 338.925 66.1153C338.925 62.213 339.786 58.7124 341.508 55.6135C343.287 52.5146 345.697 50.0756 348.739 48.2966C351.837 46.4602 355.309 45.542 359.154 45.542C362.712 45.542 365.84 46.3454 368.537 47.9523C371.292 49.5017 373.444 51.6824 374.993 54.4944C376.543 57.3064 377.317 60.5488 377.317 64.2216C377.317 64.4511 377.289 64.8241 377.231 65.3406C377.231 65.7997 377.174 66.4023 377.059 67.1483H340.819V64.652H375.338L374.563 65.2545C374.792 61.8687 374.276 58.8845 373.013 56.3021C371.751 53.7197 369.914 51.7111 367.504 50.2765C365.151 48.7844 362.339 48.0384 359.068 48.0384C355.625 48.0384 352.584 48.8131 349.944 50.3625C347.361 51.8546 345.324 53.9492 343.832 56.6464C342.397 59.2863 341.68 62.3852 341.68 65.9432C341.68 69.616 342.426 72.8296 343.918 75.5842C345.467 78.3388 347.62 80.4908 350.374 82.0403C353.129 83.5897 356.342 84.3645 360.015 84.3645C362.77 84.3645 365.295 83.848 367.59 82.815C369.943 81.782 371.923 80.2326 373.53 78.1666L375.338 79.9743C373.559 82.0977 371.292 83.7906 368.537 85.0531C365.84 86.2582 362.885 86.8608 359.671 86.8608Z" fill="white"/>
</svg>
