<svg width="318" height="920" viewBox="0 0 318 920" fill="none" xmlns="http://www.w3.org/2000/svg">
<path d="M85.6506 0C89.9262 2.46856 93.8986 5.389 97.508 8.69727C96.7861 8.6116 96.065 8.56621 95.3449 8.56055C92.0317 8.53449 89.0289 9.34011 86.3361 10.9756C83.6437 12.5624 81.4819 14.7619 79.8517 17.5752C78.2221 20.3397 77.3931 23.4764 77.3654 26.9844C77.3382 30.4437 78.1177 33.593 79.7033 36.4316C81.289 39.2703 83.4644 41.5295 86.2287 43.208C88.9441 44.8859 91.9586 45.7376 95.2717 45.7637C98.5361 45.7893 101.441 45.0569 103.987 43.5664C106.532 42.0759 108.545 40.0936 110.027 37.6201C111.459 35.0977 112.188 32.3264 112.212 29.3057C112.215 28.8867 112.206 28.4852 112.188 28.1016C116.921 37.502 119.401 47.8957 119.401 58.4561H81.0744V47.8809H58.006L85.6506 0ZM95.633 18.3574C97.3383 18.3708 98.8951 18.7728 100.302 19.5635C101.66 20.305 102.724 21.3367 103.493 22.6582C104.263 23.9799 104.641 25.4939 104.627 27.1992C104.614 28.8558 104.212 30.3636 103.422 31.7217C102.632 33.0797 101.551 34.1433 100.181 34.9121C98.8109 35.6322 97.2483 35.9855 95.4943 35.9717C93.6919 35.9574 92.1115 35.5793 90.7531 34.8379C89.395 34.0476 88.3309 32.9915 87.5617 31.6699C86.7442 30.2992 86.3423 28.7609 86.3557 27.0557C86.3691 25.3503 86.7953 23.8432 87.634 22.5342C88.4239 21.2248 89.5032 20.2094 90.8732 19.4893C92.2436 18.7204 93.8303 18.3433 95.633 18.3574Z" fill="#FF5B04"/>
<rect x="158.786" y="602.14" width="158.786" height="158.786" fill="#FF5B04"/>
<rect y="602.14" width="158.786" height="158.786" fill="#16232B"/>
<rect y="760.926" width="158.786" height="158.786" fill="#075056"/>
<rect x="158.786" y="760.926" width="158.786" height="158.786" fill="#E4EEF0"/>
<path d="M76.3401 811.091C80.6157 813.559 84.5881 816.48 88.1975 819.788C87.4756 819.702 86.7545 819.657 86.0344 819.651C82.7212 819.625 79.7185 820.431 77.0256 822.066C74.3332 823.653 72.1714 825.853 70.5413 828.666C68.9116 831.43 68.0826 834.567 68.0549 838.075C68.0277 841.534 68.8072 844.684 70.3928 847.522C71.9785 850.361 74.154 852.619 76.9182 854.298C79.6337 855.976 82.6479 856.828 85.9612 856.854C89.2256 856.88 92.1305 856.147 94.676 854.657C97.2216 853.166 99.2348 851.184 100.716 848.711C102.149 846.188 102.878 843.417 102.902 840.396C102.905 839.977 102.895 839.576 102.877 839.192C107.61 848.593 110.09 858.986 110.09 869.547H71.7639V858.971H48.6956L76.3401 811.091ZM86.3225 829.448C88.0279 829.461 89.5846 829.863 90.9915 830.654C92.3498 831.396 93.4137 832.427 94.1829 833.749C94.9521 835.07 95.3301 836.584 95.3167 838.29C95.3036 839.946 94.9019 841.454 94.1116 842.812C93.3213 844.17 92.2407 845.234 90.8704 846.003C89.5004 846.723 87.9378 847.076 86.1838 847.062C84.3814 847.048 82.801 846.67 81.4426 845.928C80.0846 845.138 79.0205 844.082 78.2512 842.76C77.4337 841.39 77.0318 839.851 77.0452 838.146C77.0586 836.441 77.4849 834.934 78.3235 833.625C79.1134 832.315 80.1928 831.3 81.5627 830.58C82.9331 829.811 84.5198 829.434 86.3225 829.448Z" fill="#16232B"/>
<path d="M76.3401 652.305C80.6157 654.774 84.5881 657.694 88.1975 661.002C87.4756 660.917 86.7545 660.871 86.0344 660.866C82.7212 660.839 79.7185 661.645 77.0256 663.281C74.3332 664.867 72.1714 667.067 70.5413 669.88C68.9116 672.645 68.0826 675.781 68.0549 679.289C68.0277 682.749 68.8072 685.898 70.3928 688.737C71.9785 691.575 74.154 693.834 76.9182 695.512C79.6337 697.19 82.6479 698.043 85.9612 698.069C89.2256 698.094 92.1305 697.362 94.676 695.871C97.2216 694.381 99.2348 692.399 100.716 689.925C102.149 687.403 102.878 684.631 102.902 681.611C102.905 681.192 102.895 680.79 102.877 680.407C107.61 689.807 110.09 700.201 110.09 710.761H71.7639V700.186H48.6956L76.3401 652.305ZM86.3225 670.662C88.0279 670.676 89.5846 671.078 90.9915 671.868C92.3498 672.61 93.4137 673.642 94.1829 674.963C94.9521 676.285 95.3301 677.799 95.3167 679.504C95.3036 681.161 94.9019 682.669 94.1116 684.027C93.3213 685.385 92.2407 686.448 90.8704 687.217C89.5004 687.937 87.9378 688.29 86.1838 688.277C84.3814 688.262 82.801 687.884 81.4426 687.143C80.0846 686.353 79.0205 685.296 78.2512 683.975C77.4337 682.604 77.0318 681.066 77.0452 679.361C77.0586 677.655 77.4849 676.148 78.3235 674.839C79.1134 673.53 80.1928 672.514 81.5627 671.794C82.9331 671.025 84.5198 670.648 86.3225 670.662Z" fill="#E4EEF0"/>
<path d="M235.126 652.305C239.401 654.774 243.374 657.694 246.983 661.002C246.261 660.917 245.54 660.871 244.82 660.866C241.507 660.839 238.504 661.645 235.811 663.281C233.119 664.867 230.957 667.067 229.327 669.88C227.697 672.645 226.868 675.781 226.841 679.289C226.813 682.749 227.593 685.898 229.178 688.737C230.764 691.575 232.94 693.834 235.704 695.512C238.419 697.19 241.434 698.043 244.747 698.069C248.011 698.094 250.916 697.362 253.462 695.871C256.007 694.381 258.02 692.399 259.502 689.925C260.935 687.403 261.663 684.631 261.687 681.611C261.691 681.192 261.681 680.79 261.663 680.407C266.396 689.807 268.876 700.201 268.876 710.761H230.55V700.186H207.481L235.126 652.305ZM245.108 670.662C246.814 670.676 248.37 671.078 249.777 671.868C251.135 672.61 252.199 673.642 252.969 674.963C253.738 676.285 254.116 677.799 254.102 679.504C254.089 681.161 253.688 682.669 252.897 684.027C252.107 685.385 251.026 686.448 249.656 687.217C248.286 687.937 246.723 688.29 244.969 688.277C243.167 688.262 241.587 687.884 240.228 687.143C238.87 686.353 237.806 685.296 237.037 683.975C236.219 682.604 235.817 681.066 235.831 679.361C235.844 677.655 236.27 676.148 237.109 674.839C237.899 673.53 238.978 672.514 240.348 671.794C241.719 671.025 243.305 670.648 245.108 670.662Z" fill="#075056"/>
<path d="M235.126 811.091C239.401 813.559 243.374 816.48 246.983 819.788C246.261 819.702 245.54 819.657 244.82 819.651C241.507 819.625 238.504 820.431 235.811 822.066C233.119 823.653 230.957 825.853 229.327 828.666C227.697 831.43 226.868 834.567 226.841 838.075C226.813 841.534 227.593 844.684 229.178 847.522C230.764 850.361 232.94 852.619 235.704 854.298C238.419 855.976 241.434 856.828 244.747 856.854C248.011 856.88 250.916 856.147 253.462 854.657C256.007 853.166 258.02 851.184 259.502 848.711C260.935 846.188 261.663 843.417 261.687 840.396C261.691 839.977 261.681 839.576 261.663 839.192C266.396 848.593 268.876 858.986 268.876 869.547H230.55V858.971H207.481L235.126 811.091ZM245.108 829.448C246.814 829.461 248.37 829.863 249.777 830.654C251.135 831.396 252.199 832.427 252.969 833.749C253.738 835.07 254.116 836.584 254.102 838.29C254.089 839.946 253.688 841.454 252.897 842.812C252.107 844.17 251.026 845.234 249.656 846.003C248.286 846.723 246.723 847.076 244.969 847.062C243.167 847.048 241.587 846.67 240.228 845.928C238.87 845.138 237.806 844.082 237.037 842.76C236.219 841.39 235.817 839.851 235.831 838.146C235.844 836.441 236.27 834.934 237.109 833.625C237.899 832.315 238.978 831.3 240.348 830.58C241.719 829.811 243.305 829.434 245.108 829.448Z" fill="#FF5B04"/>
</svg>
